<svg xmlns="http://www.w3.org/2000/svg" xmlns:xlink="http://www.w3.org/1999/xlink" version="1.1" width="40" height="40" viewBox="0 0 256 256" xml:space="preserve">

<defs>
</defs>
<g style="stroke: none; stroke-width: 0; stroke-dasharray: none; stroke-linecap: butt; stroke-linejoin: miter; stroke-miterlimit: 10; fill: none; fill-rule: nonzero; opacity: 1;" transform="translate(1.4065934065934016 1.4065934065934016) scale(2.81 2.81)" >
	<path d="M 75.516 68.274 L 65.233 53.318 c -0.359 -0.522 0.015 -1.232 0.648 -1.232 h 4.085 c 1.609 0 2.557 -1.804 1.646 -3.13 L 61.173 33.775 c -0.359 -0.522 0.015 -1.232 0.648 -1.232 h 3.424 c 1.609 0 2.558 -1.804 1.646 -3.13 L 47.609 1.372 c -1.258 -1.83 -3.96 -1.83 -5.218 0 L 23.109 29.413 c -0.911 1.325 0.037 3.13 1.646 3.13 h 2.203 h 1.221 c 0.124 0 0.235 0.034 0.335 0.081 c 0.015 0.007 0.032 0.013 0.046 0.021 c 0.093 0.052 0.172 0.122 0.235 0.205 c 0.009 0.012 0.017 0.024 0.026 0.037 c 0.061 0.09 0.108 0.19 0.128 0.298 c 0 0.001 0 0.002 0 0.003 c 0.021 0.115 0.018 0.237 -0.016 0.355 c -0.023 0.08 -0.055 0.158 -0.107 0.233 L 18.388 48.956 c -0.911 1.325 0.038 3.13 1.646 3.13 h 3.085 h 1 c 0.124 0 0.235 0.034 0.335 0.082 c 0.015 0.007 0.032 0.013 0.046 0.021 c 0.093 0.052 0.172 0.122 0.235 0.205 c 0.009 0.012 0.017 0.024 0.026 0.036 c 0.061 0.09 0.108 0.19 0.128 0.298 c 0 0.001 0 0.002 0 0.003 c 0.021 0.115 0.018 0.237 -0.016 0.356 c -0.023 0.08 -0.055 0.158 -0.107 0.232 L 14.484 68.274 c -0.911 1.325 0.037 3.13 1.646 3.13 h 23.812 v 17.034 c 0 0.863 0.7 1.563 1.563 1.563 h 6.991 c 0.863 0 1.563 -0.7 1.563 -1.563 V 71.403 H 73.87 C 75.479 71.403 76.428 69.599 75.516 68.274 z" style="stroke: none; stroke-width: 1; stroke-dasharray: none; stroke-linecap: butt; stroke-linejoin: miter; stroke-miterlimit: 10; fill: rgb(0,0,0); fill-rule: nonzero; opacity: 1;" transform=" matrix(1 0 0 1 0 0) " stroke-linecap="round" />
</g>
</svg>